<svg width="42" height="48" viewBox="0 0 240 268" class="css-1j8o68f"><defs id="SvgjsDefs1561"></defs><g id="SvgjsG1562" featurekey="rootContainer" transform="matrix(1,0,0,1,0,0)" fill="#0c056d"><rect xmlns="http://www.w3.org/2000/svg" width="240" height="268" rx="10" ry="10"></rect></g><g id="SvgjsG1563" featurekey="dFhhLb-0" transform="matrix(14.925418173215677,0,0,14.925418173215677,11.642065590785942,-51.64262925670968)" fill="#ffffff"><path d="M3.98 17.4 c0 0.14666 0.02 0.24666 0.06 0.3 s0.08666 0.1 0.14 0.14 c0.10666 0.08 0.21332 0.19334 0.31998 0.34 s0.16 0.33332 0.16 0.55998 l0 1.26 l-4.1 0 l0 -1.26 c0 -0.22666 0.05334 -0.41332 0.16 -0.55998 s0.21332 -0.26 0.31998 -0.34 c0.06666 -0.04 0.11666 -0.08666 0.15 -0.14 s0.05 -0.15334 0.05 -0.3 l0 -9.74 l0 -0.02 c0 -0.13334 -0.01666 -0.22668 -0.05 -0.28002 s-0.08334 -0.10668 -0.15 -0.16002 c-0.10666 -0.08 -0.21332 -0.19334 -0.31998 -0.34 s-0.16 -0.33332 -0.16 -0.55998 l0 -1.26 l4.1 0 l0 1.26 c0 0.22666 -0.05334 0.41332 -0.16 0.55998 s-0.21332 0.26 -0.31998 0.34 c-0.05334 0.05334 -0.1 0.10668 -0.14 0.16002 s-0.06 0.14668 -0.06 0.28002 l0 0.02 l0 9.74 l0 0 z M10.02 20.1 c-0.49334 0 -0.97676 -0.05998 -1.4501 -0.17998 s-0.89334 -0.30334 -1.26 -0.55 s-0.66332 -0.56 -0.88998 -0.94 s-0.34 -0.82334 -0.34 -1.33 l0 -9.28 c0 -0.50666 0.11334 -0.95 0.34 -1.33 s0.52666 -0.69334 0.9 -0.94 s0.79668 -0.43332 1.27 -0.55998 s0.95668 -0.19 1.45 -0.19 s0.97668 0.06334 1.45 0.19 s0.89334 0.31332 1.26 0.55998 s0.66 0.56 0.88 0.94 s0.33 0.82334 0.33 1.33 l0 1.48 l-1.5 0 c-0.33334 0 -0.61334 -0.1 -0.84 -0.3 s-0.34 -0.46 -0.34 -0.78 l0 -0.02 c0 -0.13334 -0.01666 -0.26668 -0.05 -0.40002 s-0.09334 -0.25 -0.18 -0.35 s-0.21332 -0.18 -0.37998 -0.24 s-0.38332 -0.09 -0.64998 -0.09 c-0.25334 0 -0.46 0.03334 -0.62 0.1 s-0.28666 0.14666 -0.38 0.24 s-0.15668 0.2 -0.19002 0.32 s-0.05 0.22666 -0.05 0.32 l0 8.76 c0 0.18666 0.12 0.37666 0.36 0.57 s0.53334 0.29 0.88 0.29 s0.64666 -0.08 0.9 -0.24 s0.38 -0.34666 0.38 -0.56 l0 -0.2 c0 -0.30666 0.09 -0.57 0.27 -0.79 s0.45 -0.33 0.81 -0.33 l1.58 0 l0 1.5 c0 0.50666 -0.11334 0.95 -0.34 1.33 s-0.52332 0.69334 -0.88998 0.94 s-0.78666 0.43 -1.26 0.55 s-0.95668 0.18 -1.45 0.18 z"></path></g></svg>